<mxfile host="app.diagrams.net" agent="Mozilla/5.0 (Windows NT 10.0; Win64; x64) AppleWebKit/537.36 (KHTML, like Gecko) Chrome/131.0.0.0 Safari/537.36" version="25.0.3">
  <diagram name="Page-1" id="npLbE8J98bGHxl6P-5pd">
    <mxGraphModel dx="2074" dy="1098" grid="1" gridSize="10" guides="1" tooltips="1" connect="1" arrows="1" fold="1" page="1" pageScale="1" pageWidth="850" pageHeight="1100" math="0" shadow="0">
      <root>
        <mxCell id="0" />
        <mxCell id="1" parent="0" />
        <mxCell id="xrJP1ih3WPZKi38gxEbK-1" value="Consume Gateway" style="rounded=0;whiteSpace=wrap;html=1;fillColor=#f5f5f5;fontColor=#333333;strokeColor=#666666;" vertex="1" parent="1">
          <mxGeometry x="150" y="220" width="520" height="240" as="geometry" />
        </mxCell>
        <mxCell id="xrJP1ih3WPZKi38gxEbK-3" value="Bank" style="rounded=0;whiteSpace=wrap;html=1;fillColor=#f8cecc;strokeColor=#b85450;" vertex="1" parent="1">
          <mxGeometry x="150" y="140" width="130" height="80" as="geometry" />
        </mxCell>
        <mxCell id="xrJP1ih3WPZKi38gxEbK-4" value="Grocery Store" style="rounded=0;whiteSpace=wrap;html=1;fillColor=#dae8fc;strokeColor=#6c8ebf;" vertex="1" parent="1">
          <mxGeometry x="280" y="140" width="120" height="80" as="geometry" />
        </mxCell>
        <mxCell id="xrJP1ih3WPZKi38gxEbK-5" value="Restaurant" style="rounded=0;whiteSpace=wrap;html=1;fillColor=#fff2cc;strokeColor=#d6b656;" vertex="1" parent="1">
          <mxGeometry x="530" y="140" width="140" height="80" as="geometry" />
        </mxCell>
        <mxCell id="xrJP1ih3WPZKi38gxEbK-6" value="Appliance" style="rounded=0;whiteSpace=wrap;html=1;fillColor=#e1d5e7;strokeColor=#9673a6;" vertex="1" parent="1">
          <mxGeometry x="280" y="460" width="130" height="70" as="geometry" />
        </mxCell>
        <mxCell id="xrJP1ih3WPZKi38gxEbK-7" value="Map" style="rounded=0;whiteSpace=wrap;html=1;fillColor=#ffe6cc;strokeColor=#d79b00;" vertex="1" parent="1">
          <mxGeometry x="195" y="240" width="150" height="90" as="geometry" />
        </mxCell>
        <mxCell id="xrJP1ih3WPZKi38gxEbK-8" value="Furniture" style="rounded=0;whiteSpace=wrap;html=1;fillColor=#e1d5e7;strokeColor=#9673a6;" vertex="1" parent="1">
          <mxGeometry x="410" y="460" width="130" height="70" as="geometry" />
        </mxCell>
        <mxCell id="xrJP1ih3WPZKi38gxEbK-9" value="Electronics" style="rounded=0;whiteSpace=wrap;html=1;fillColor=#e1d5e7;strokeColor=#9673a6;" vertex="1" parent="1">
          <mxGeometry x="150" y="460" width="130" height="70" as="geometry" />
        </mxCell>
        <mxCell id="xrJP1ih3WPZKi38gxEbK-10" value="Quota" style="rounded=0;whiteSpace=wrap;html=1;fillColor=#ffe6cc;strokeColor=#d79b00;" vertex="1" parent="1">
          <mxGeometry x="195" y="350" width="150" height="90" as="geometry" />
        </mxCell>
        <mxCell id="xrJP1ih3WPZKi38gxEbK-11" value="Book" style="rounded=0;whiteSpace=wrap;html=1;fillColor=#e1d5e7;strokeColor=#9673a6;" vertex="1" parent="1">
          <mxGeometry x="150" y="530" width="130" height="70" as="geometry" />
        </mxCell>
        <mxCell id="xrJP1ih3WPZKi38gxEbK-12" value="Placement Gateway" style="rounded=0;whiteSpace=wrap;html=1;fillColor=#f5f5f5;fontColor=#333333;strokeColor=#666666;" vertex="1" parent="1">
          <mxGeometry x="150" y="600" width="520" height="230" as="geometry" />
        </mxCell>
        <mxCell id="xrJP1ih3WPZKi38gxEbK-13" value="Food" style="rounded=0;whiteSpace=wrap;html=1;fillColor=#e1d5e7;strokeColor=#9673a6;" vertex="1" parent="1">
          <mxGeometry x="280" y="530" width="130" height="70" as="geometry" />
        </mxCell>
        <mxCell id="xrJP1ih3WPZKi38gxEbK-14" value="Search" style="rounded=0;whiteSpace=wrap;html=1;fillColor=#ffe6cc;strokeColor=#d79b00;" vertex="1" parent="1">
          <mxGeometry x="480" y="240" width="150" height="90" as="geometry" />
        </mxCell>
        <mxCell id="xrJP1ih3WPZKi38gxEbK-15" value="Refund" style="rounded=0;whiteSpace=wrap;html=1;fillColor=#ffe6cc;strokeColor=#d79b00;" vertex="1" parent="1">
          <mxGeometry x="480" y="350" width="150" height="90" as="geometry" />
        </mxCell>
        <mxCell id="xrJP1ih3WPZKi38gxEbK-16" value="Waste" style="rounded=0;whiteSpace=wrap;html=1;" vertex="1" parent="1">
          <mxGeometry x="150" y="830" width="250" height="110" as="geometry" />
        </mxCell>
        <mxCell id="xrJP1ih3WPZKi38gxEbK-17" value="Second Hand*" style="rounded=0;whiteSpace=wrap;html=1;" vertex="1" parent="1">
          <mxGeometry x="400" y="830" width="270" height="110" as="geometry" />
        </mxCell>
        <mxCell id="xrJP1ih3WPZKi38gxEbK-18" value="Tool" style="rounded=0;whiteSpace=wrap;html=1;fillColor=#e1d5e7;strokeColor=#9673a6;" vertex="1" parent="1">
          <mxGeometry x="540" y="460" width="130" height="70" as="geometry" />
        </mxCell>
        <mxCell id="xrJP1ih3WPZKi38gxEbK-20" value="Sports" style="rounded=0;whiteSpace=wrap;html=1;fillColor=#e1d5e7;strokeColor=#9673a6;" vertex="1" parent="1">
          <mxGeometry x="410" y="530" width="130" height="70" as="geometry" />
        </mxCell>
        <mxCell id="xrJP1ih3WPZKi38gxEbK-21" value="Search" style="rounded=0;whiteSpace=wrap;html=1;fillColor=#ffe6cc;strokeColor=#d79b00;" vertex="1" parent="1">
          <mxGeometry x="480" y="610" width="150" height="90" as="geometry" />
        </mxCell>
        <mxCell id="xrJP1ih3WPZKi38gxEbK-22" value="Store" style="rounded=0;whiteSpace=wrap;html=1;fillColor=#ffe6cc;strokeColor=#d79b00;" vertex="1" parent="1">
          <mxGeometry x="480" y="730" width="150" height="90" as="geometry" />
        </mxCell>
        <mxCell id="xrJP1ih3WPZKi38gxEbK-23" value="Household" style="rounded=0;whiteSpace=wrap;html=1;fillColor=#e1d5e7;strokeColor=#9673a6;" vertex="1" parent="1">
          <mxGeometry x="540" y="530" width="130" height="70" as="geometry" />
        </mxCell>
        <mxCell id="xrJP1ih3WPZKi38gxEbK-24" value="Layout" style="rounded=0;whiteSpace=wrap;html=1;fillColor=#ffe6cc;strokeColor=#d79b00;" vertex="1" parent="1">
          <mxGeometry x="185" y="610" width="150" height="90" as="geometry" />
        </mxCell>
        <mxCell id="xrJP1ih3WPZKi38gxEbK-25" value="Log" style="rounded=0;whiteSpace=wrap;html=1;fillColor=#ffe6cc;strokeColor=#d79b00;" vertex="1" parent="1">
          <mxGeometry x="185" y="730" width="150" height="90" as="geometry" />
        </mxCell>
        <mxCell id="xrJP1ih3WPZKi38gxEbK-26" value="Delievery" style="rounded=0;whiteSpace=wrap;html=1;fillColor=#d5e8d4;strokeColor=#82b366;" vertex="1" parent="1">
          <mxGeometry x="400" y="140" width="130" height="80" as="geometry" />
        </mxCell>
      </root>
    </mxGraphModel>
  </diagram>
</mxfile>
